:SAMPLES-PER-SECOND 30
:FULLY-SPECIFIED
:DEGREES
636
root  80.9694 38.456 -1.60126 -81.4695 -86.835 80.6725
RightUpLeg  1.78598 -10.9024 -5.24691
RightLeg  16.057 2.0126 1.10148
RightFoot  -16.6299 -0.165928 -1.15765
RightToes  1.45519e-009 0 -3.6325e-017
Spine  8.4383 0.136691 6.23503
Spine1  3.77124 1.04177 -1.85977
HEad  0.505443 -23.5863 -5.77282
LeftShoulder1  -0.525802 4.85861 -32.6648
LeftArm  -8.58288 10.8555 -40.814
LeftForeArm  27.6682 -12.891 -5.38008
LeftHand  -0.0814393 7.44606 -2.51796
RightShoulder  -1.22258 -6.73407 31.3279
RightArm  16.503 -0.942707 44.6816
RightForeArm  17.1224 5.85417 8.36998
RightHand  -0.22934 3.3305 -3.30288
LeftUpLeg  -22.6732 3.37597 0.708856
LeftLeg  26.356 -3.66276 -1.65822
LeftFoot  -2.30121 0.514012 -6.32436
LeftToes  -2.53752e-010 -2.07034e-011 -2.70101e-011
637
root  80.6139 38.4625 -1.63073 -70.456 -86.2645 69.7697
RightUpLeg  2.63151 -11.0438 -5.69513
RightLeg  15.5439 1.52593 0.998927
RightFoot  -16.9175 -0.161048 -0.958918
RightToes  1.45519e-009 0 -3.6325e-017
Spine  8.39631 0.0361064 5.60351
Spine1  3.66511 0.902841 -2.13024
HEad  0.257455 -23.7559 -5.49622
LeftShoulder1  -0.595702 5.03811 -32.6755
LeftArm  -8.30279 12.4657 -40.1274
LeftForeArm  27.2516 -12.0721 -5.65234
LeftHand  -0.14466 11.0604 -1.6426
RightShoulder  -1.24965 -6.7949 31.4552
RightArm  17.368 -0.758625 44.5907
RightForeArm  16.1657 7.04096 8.53913
RightHand  -0.210507 3.81738 -2.87914
LeftUpLeg  -22.481 3.93079 -0.650225
LeftLeg  22.8511 -1.92538 -0.567489
LeftFoot  -2.74176 0.470352 -6.03501
LeftToes  -2.53752e-010 -2.07034e-011 -2.70101e-011
638
root  80.1945 38.4715 -1.66174 -68.3907 -86.1432 68.1005
RightUpLeg  3.38697 -10.8273 -5.6735
RightLeg  14.569 1.18115 0.862985
RightFoot  -17.0791 -0.154007 -0.767952
RightToes  1.45519e-009 0 -3.6325e-017
Spine  7.44618 0.349762 5.28168
Spine1  4.42187 1.22492 -2.50068
HEad  0.227107 -23.9534 -5.05046
LeftShoulder1  -0.57076 4.97326 -32.687
LeftArm  -10.7052 13.4911 -39.7285
LeftForeArm  29.5466 -9.55306 -5.23082
LeftHand  -0.128409 8.86503 -2.42998
RightShoulder  -1.25359 -6.80632 31.4441
RightArm  18.5187 -0.37888 44.719
RightForeArm  15.2532 8.53613 8.54017
RightHand  -0.122874 3.19113 -1.87062
LeftUpLeg  -22.3176 5.96692 -1.77159
LeftLeg  19.2571 -0.973995 -0.0557614
LeftFoot  -2.81596 0.459102 -5.92765
LeftToes  -2.53752e-010 -2.07034e-011 -2.70101e-011
639
root  79.7255 38.4829 -1.6593 -66.3519 -86.014 66.1443
RightUpLeg  4.62836 -10.8078 -5.8691
RightLeg  13.5174 0.959768 0.862087
RightFoot  -17.0645 -0.161858 -0.928864
RightToes  1.45519e-009 0 -3.6325e-017
Spine  7.3619 0.497884 4.72001
Spine1  4.37272 1.36917 -2.65413
HEad  0.111356 -24.0436 -5.11874
LeftShoulder1  -0.535451 4.88841 -32.5186
LeftArm  -10.7349 15.1808 -39.2781
LeftForeArm  29.5476 -8.79796 -5.20343
LeftHand  -0.209674 10.9481 -3.04995
RightShoulder  -1.23904 -6.75926 31.5408
RightArm  19.4326 0.217876 45.038
RightForeArm  13.616 9.41983 8.54358
RightHand  -0.220477 3.82221 -3.01457
LeftUpLeg  -21.8641 7.81551 -2.92038
LeftLeg  16.3953 -0.275176 0.229036
LeftFoot  -2.38164 0.492131 -6.09854
LeftToes  -2.53752e-010 -2.07034e-011 -2.70101e-011
640
root  79.1866 38.3937 -1.59842 -57.1874 -85.8773 57.0738
RightUpLeg  5.74806 -10.8355 -5.88701
RightLeg  13.1282 0.365802 0.834585
RightFoot  -17.7265 -0.153382 -0.604085
RightToes  1.45519e-009 0 -3.6325e-017
Spine  7.41714 0.456969 4.33332
Spine1  3.86373 1.23581 -2.42892
HEad  0.0530267 -24.0535 -5.16394
LeftShoulder1  -0.589087 5.01287 -32.8872
LeftArm  -10.3979 16.3952 -38.4958
LeftForeArm  30.3938 -8.38488 -5.32812
LeftHand  -0.265132 12.5636 -3.12386
RightShoulder  -1.22448 -6.73042 31.4291
RightArm  20.7732 0.601668 45.3694
RightForeArm  13.0464 10.8042 8.32097
RightHand  -0.118261 3.07918 -1.85363
LeftUpLeg  -21.6951 8.18087 -3.71977
LeftLeg  14.8964 0.943889 0.569456
LeftFoot  -2.2171 0.458673 -5.56763
LeftToes  -2.53752e-010 -2.07034e-011 -2.70101e-011
641
root  78.5627 38.2589 -1.50162 -49.7678 -85.6631 49.6747
RightUpLeg  6.88538 -10.7606 -5.87637
RightLeg  13.1478 -0.199862 0.587693
RightFoot  -18.6706 -0.124167 0.0275914
RightToes  1.45519e-009 0 -3.6325e-017
Spine  6.85032 0.430906 3.99154
Spine1  4.35773 1.18717 -2.35646
HEad  0.00824537 -24.6659 -4.78173
LeftShoulder1  -0.56899 4.96742 -32.7271
LeftArm  -11.1408 17.3912 -38.3671
LeftForeArm  31.1243 -7.7491 -4.82276
LeftHand  -0.28568 11.203 -4.23315
RightShoulder  -1.21584 -6.70428 31.4646
RightArm  22.663 1.34765 45.8288
RightForeArm  10.3113 12.2382 8.1159
RightHand  -0.194843 4.67545 -2.54577
LeftUpLeg  -21.1423 8.2339 -4.34881
LeftLeg  14.0894 1.90128 0.729742
LeftFoot  -1.79065 0.399583 -4.65523
LeftToes  -2.53752e-010 -2.07034e-011 -2.70101e-011
642
root  77.8896 38.1358 -1.3817 -45.6459 -85.618 45.6333
RightUpLeg  8.08486 -10.8178 -6.01777
RightLeg  13.0168 -0.270684 0.609698
RightFoot  -19.4886 -0.0748717 0.814378
RightToes  1.45519e-009 0 -3.6325e-017
Spine  6.81461 0.718658 3.74897
Spine1  3.79401 1.52447 -2.60933
HEad  0.256454 -25.2752 -4.85476
LeftShoulder1  -0.579237 4.99719 -32.6384
LeftArm  -10.8324 18.1074 -38.0762
LeftForeArm  31.1137 -7.8349 -4.98279
LeftHand  -0.456327 13.9734 -4.95418
RightShoulder  -1.26714 -6.81562 31.7446
RightArm  25.5035 1.2944 45.6367
RightForeArm  7.00478 14.5371 7.49794
RightHand  -0.211544 4.50717 -2.77454
LeftUpLeg  -20.8544 8.07473 -4.86641
LeftLeg  14.6065 1.82922 0.737908
LeftFoot  0.12715 0.11715 -1.32612
LeftToes  -2.53752e-010 -2.07034e-011 -2.70101e-011
643
root  77.0959 38.1171 -1.23133 -60.9387 -85.936 60.4919
RightUpLeg  9.81949 -10.6563 -7.03689
RightLeg  12.8574 0.918596 0.31308
RightFoot  -19.7253 0.0126475 1.97428
RightToes  1.45519e-009 0 -3.6325e-017
Spine  6.4226 1.32817 2.88409
Spine1  4.47821 2.3796 -3.47254
HEad  0.588371 -25.5502 -4.32033
LeftShoulder1  -0.594839 5.03082 -32.7964
LeftArm  -10.1802 18.8758 -37.4108
LeftForeArm  31.1908 -8.55389 -5.29338
LeftHand  -0.341931 11.7172 -4.82217
RightShoulder  -1.26499 -6.80091 31.8464
RightArm  27.8367 1.54972 45.8767
RightForeArm  4.37018 16.1651 6.99253
RightHand  -0.239534 5.78866 -2.80762
LeftUpLeg  -19.7185 8.32343 -5.54597
LeftLeg  15.4987 2.11685 0.798026
LeftFoot  1.76693 -0.430987 3.74229
LeftToes  -2.53752e-010 -2.07034e-011 -2.70101e-011
